#Comment line ignore any data following # character 
#Hierarchical Translation and Rotation (.htr) file 
[Header]	
#Header keywords are followed by a single value 
FileType HTR		#Single word string
DataType HTRS		#Translation followed by rotation and scale data
FileVersion 1		#integer
NumSegments 84		#integer
NumFrames 2		#integer
DataFrameRate 30		#integer, data frame rate in this file
EulerRotationOrder ZYX
CalibrationUnits mm
RotationUnits Degrees
GlobalAxisofGravity Y
BoneLengthAxis Y
ScaleFactor 1.00
[SegmentNames&Hierarchy]
#CHILD	PARENT
MASTER GLOBAL
root MASTER
chest root
L_mid_tent01 root
R_mid_tent01 root
spine01 root
Bip01_Neck chest
L_humerus chest
R_humerus chest
weapon_bone chest
Bip01_Head Bip01_Neck
eye_left_bone Bip01_Head
eye_right_bone Bip01_Head
L_forearm L_humerus
L_front_hand L_forearm
L_weapon_bone L_forearm
L_front_hand01_01 L_front_hand
L_front_hand02_01 L_front_hand
L_front_hand03_01 L_front_hand
L_front_hand01_02 L_front_hand01_01
L_front_hand02_02 L_front_hand02_01
L_front_hand03_02 L_front_hand03_01
R_forearm R_humerus
R_front_hand R_forearm
R_weapon_bone R_forearm
R_front_hand01_01 R_front_hand
R_front_hand02_01 R_front_hand
R_front_hand03_01 R_front_hand
R_front_hand01_02 R_front_hand01_01
R_front_hand02_02 R_front_hand02_01
R_front_hand03_02 R_front_hand03_01
null_rope01_connect L_mid_tent01
Rope1_Seg01 null_rope01_connect
Rope1_Seg02 Rope1_Seg01
Rope1_Seg03 Rope1_Seg02
Rope1_Seg04 Rope1_Seg03
Rope1_Seg05 Rope1_Seg04
Rope1_Seg06 Rope1_Seg05
Rope1_Seg07 Rope1_Seg06
Rope1_Seg09 Rope1_Seg07
L_mid_hand01 Rope1_Seg09
L_mid_hand02 Rope1_Seg09
L_mid_hand03 Rope1_Seg09
null_rope02_connect R_mid_tent01
Rope2_Seg01 null_rope02_connect
Rope2_Seg02 Rope2_Seg01
Rope2_Seg03 Rope2_Seg02
Rope2_Seg04 Rope2_Seg03
Rope2_Seg05 Rope2_Seg04
Rope2_Seg06 Rope2_Seg05
Rope2_Seg07 Rope2_Seg06
Rope2_Seg09 Rope2_Seg07
R_mid_hand01 Rope2_Seg09
R_mid_hand02 Rope2_Seg09
R_mid_hand03 Rope2_Seg09
spine02 spine01
spine03 spine02
pelvis spine03
null_rope03_connect pelvis
null_rope04_connect pelvis
Rope3_Seg01 null_rope03_connect
Rope3_Seg02 Rope3_Seg01
Rope3_Seg03 Rope3_Seg02
Rope3_Seg04 Rope3_Seg03
Rope3_Seg05 Rope3_Seg04
Rope3_Seg06 Rope3_Seg05
Rope3_Seg07 Rope3_Seg06
Rope3_Seg08 Rope3_Seg07
Rope3_Seg09 Rope3_Seg08
R_rear_hand01 Rope3_Seg09
R_rear_hand02 Rope3_Seg09
R_rear_hand03 Rope3_Seg09
Rope4_Seg01 null_rope04_connect
Rope4_Seg02 Rope4_Seg01
Rope4_Seg03 Rope4_Seg02
Rope4_Seg04 Rope4_Seg03
Rope4_Seg05 Rope4_Seg04
Rope4_Seg06 Rope4_Seg05
Rope4_Seg07 Rope4_Seg06
Rope4_Seg08 Rope4_Seg07
Rope4_Seg09 Rope4_Seg08
L_rear_hand01 Rope4_Seg09
L_rear_hand02 Rope4_Seg09
L_rear_hand03 Rope4_Seg09
[BasePosition]
#SegmentName Tx, Ty, Tz, Rx, Ry, Rz, BoneLength
MASTER 0.000000 0.000000 0.000000 -90.000000 0.000000 0.000000 10.000000 
root 0.000000 0.000000 0.000000 0.000000 0.000000 0.000000 10.000000 
chest 0.000000 0.000000 0.000000 0.000000 0.000000 0.000000 10.000000 
L_mid_tent01 0.000000 0.000000 0.000000 0.000000 0.000000 0.000000 10.000000 
R_mid_tent01 0.000000 0.000000 0.000000 0.000000 0.000000 0.000000 10.000000 
spine01 0.000000 0.000000 0.000000 0.000000 0.000000 0.000000 10.000000 
Bip01_Neck 0.000000 0.000000 0.000000 0.000000 0.000000 0.000000 10.000000 
L_humerus 0.000000 0.000000 0.000000 0.000000 0.000000 0.000000 10.000000 
R_humerus 0.000000 0.000000 0.000000 0.000000 0.000000 0.000000 10.000000 
weapon_bone 0.000000 0.000000 0.000000 0.000000 0.000000 0.000000 10.000000 
Bip01_Head 0.000000 0.000000 0.000000 0.000000 0.000000 0.000000 10.000000 
eye_left_bone 0.000000 0.000000 0.000000 0.000000 0.000000 0.000000 10.000000 
eye_right_bone 0.000000 0.000000 0.000000 0.000000 0.000000 0.000000 10.000000 
L_forearm 0.000000 0.000000 0.000000 0.000000 0.000000 0.000000 10.000000 
L_front_hand 0.000000 0.000000 0.000000 0.000000 0.000000 0.000000 10.000000 
L_weapon_bone 0.000000 0.000000 0.000000 0.000000 0.000000 0.000000 10.000000 
L_front_hand01_01 0.000000 0.000000 0.000000 0.000000 0.000000 0.000000 10.000000 
L_front_hand02_01 0.000000 0.000000 0.000000 0.000000 0.000000 0.000000 10.000000 
L_front_hand03_01 0.000000 0.000000 0.000000 0.000000 0.000000 0.000000 10.000000 
L_front_hand01_02 0.000000 0.000000 0.000000 0.000000 0.000000 0.000000 10.000000 
L_front_hand02_02 0.000000 0.000000 0.000000 0.000000 0.000000 0.000000 10.000000 
L_front_hand03_02 0.000000 0.000000 0.000000 0.000000 0.000000 0.000000 10.000000 
R_forearm 0.000000 0.000000 0.000000 0.000000 0.000000 0.000000 10.000000 
R_front_hand 0.000000 0.000000 0.000000 0.000000 0.000000 0.000000 10.000000 
R_weapon_bone 0.000000 0.000000 0.000000 0.000000 0.000000 0.000000 10.000000 
R_front_hand01_01 0.000000 0.000000 0.000000 0.000000 0.000000 0.000000 10.000000 
R_front_hand02_01 0.000000 0.000000 0.000000 0.000000 0.000000 0.000000 10.000000 
R_front_hand03_01 0.000000 0.000000 0.000000 0.000000 0.000000 0.000000 10.000000 
R_front_hand01_02 0.000000 0.000000 0.000000 0.000000 0.000000 0.000000 10.000000 
R_front_hand02_02 0.000000 0.000000 0.000000 0.000000 0.000000 0.000000 10.000000 
R_front_hand03_02 0.000000 0.000000 0.000000 0.000000 0.000000 0.000000 10.000000 
null_rope01_connect 0.000000 0.000000 0.000000 0.000000 0.000000 0.000000 10.000000 
Rope1_Seg01 0.000000 0.000000 0.000000 0.000000 0.000000 0.000000 10.000000 
Rope1_Seg02 0.000000 0.000000 0.000000 0.000000 0.000000 0.000000 10.000000 
Rope1_Seg03 0.000000 0.000000 0.000000 0.000000 0.000000 0.000000 10.000000 
Rope1_Seg04 0.000000 0.000000 0.000000 0.000000 0.000000 0.000000 10.000000 
Rope1_Seg05 0.000000 0.000000 0.000000 0.000000 0.000000 0.000000 10.000000 
Rope1_Seg06 0.000000 0.000000 0.000000 0.000000 0.000000 0.000000 10.000000 
Rope1_Seg07 0.000000 0.000000 0.000000 0.000000 0.000000 0.000000 10.000000 
Rope1_Seg09 0.000000 0.000000 0.000000 0.000000 0.000000 0.000000 10.000000 
L_mid_hand01 0.000000 0.000000 0.000000 0.000000 0.000000 0.000000 10.000000 
L_mid_hand02 0.000000 0.000000 0.000000 0.000000 0.000000 0.000000 10.000000 
L_mid_hand03 0.000000 0.000000 0.000000 0.000000 0.000000 0.000000 10.000000 
null_rope02_connect 0.000000 0.000000 0.000000 0.000000 0.000000 0.000000 10.000000 
Rope2_Seg01 0.000000 0.000000 0.000000 0.000000 0.000000 0.000000 10.000000 
Rope2_Seg02 0.000000 0.000000 0.000000 0.000000 0.000000 0.000000 10.000000 
Rope2_Seg03 0.000000 0.000000 0.000000 0.000000 0.000000 0.000000 10.000000 
Rope2_Seg04 0.000000 0.000000 0.000000 0.000000 0.000000 0.000000 10.000000 
Rope2_Seg05 0.000000 0.000000 0.000000 0.000000 0.000000 0.000000 10.000000 
Rope2_Seg06 0.000000 0.000000 0.000000 0.000000 0.000000 0.000000 10.000000 
Rope2_Seg07 0.000000 0.000000 0.000000 0.000000 0.000000 0.000000 10.000000 
Rope2_Seg09 0.000000 0.000000 0.000000 0.000000 0.000000 0.000000 10.000000 
R_mid_hand01 0.000000 0.000000 0.000000 0.000000 0.000000 0.000000 10.000000 
R_mid_hand02 0.000000 0.000000 0.000000 0.000000 0.000000 0.000000 10.000000 
R_mid_hand03 0.000000 0.000000 0.000000 0.000000 0.000000 0.000000 10.000000 
spine02 0.000000 0.000000 0.000000 0.000000 0.000000 0.000000 10.000000 
spine03 0.000000 0.000000 0.000000 0.000000 0.000000 0.000000 10.000000 
pelvis 0.000000 0.000000 0.000000 0.000000 0.000000 0.000000 10.000000 
null_rope03_connect 0.000000 0.000000 0.000000 0.000000 0.000000 0.000000 10.000000 
null_rope04_connect 0.000000 0.000000 0.000000 0.000000 0.000000 0.000000 10.000000 
Rope3_Seg01 0.000000 0.000000 0.000000 0.000000 0.000000 0.000000 10.000000 
Rope3_Seg02 0.000000 0.000000 0.000000 0.000000 0.000000 0.000000 10.000000 
Rope3_Seg03 0.000000 0.000000 0.000000 0.000000 0.000000 0.000000 10.000000 
Rope3_Seg04 0.000000 0.000000 0.000000 0.000000 0.000000 0.000000 10.000000 
Rope3_Seg05 0.000000 0.000000 0.000000 0.000000 0.000000 0.000000 10.000000 
Rope3_Seg06 0.000000 0.000000 0.000000 0.000000 0.000000 0.000000 10.000000 
Rope3_Seg07 0.000000 0.000000 0.000000 0.000000 0.000000 0.000000 10.000000 
Rope3_Seg08 0.000000 0.000000 0.000000 0.000000 0.000000 0.000000 10.000000 
Rope3_Seg09 0.000000 0.000000 0.000000 0.000000 0.000000 0.000000 10.000000 
R_rear_hand01 0.000000 0.000000 0.000000 0.000000 0.000000 0.000000 10.000000 
R_rear_hand02 0.000000 0.000000 0.000000 0.000000 0.000000 0.000000 10.000000 
R_rear_hand03 0.000000 0.000000 0.000000 0.000000 0.000000 0.000000 10.000000 
Rope4_Seg01 0.000000 0.000000 0.000000 0.000000 0.000000 0.000000 10.000000 
Rope4_Seg02 0.000000 0.000000 0.000000 0.000000 0.000000 0.000000 10.000000 
Rope4_Seg03 0.000000 0.000000 0.000000 0.000000 0.000000 0.000000 10.000000 
Rope4_Seg04 0.000000 0.000000 0.000000 0.000000 0.000000 0.000000 10.000000 
Rope4_Seg05 0.000000 0.000000 0.000000 0.000000 0.000000 0.000000 10.000000 
Rope4_Seg06 0.000000 0.000000 0.000000 0.000000 0.000000 0.000000 10.000000 
Rope4_Seg07 0.000000 0.000000 0.000000 0.000000 0.000000 0.000000 10.000000 
Rope4_Seg08 0.000000 0.000000 0.000000 0.000000 0.000000 0.000000 10.000000 
Rope4_Seg09 0.000000 0.000000 0.000000 0.000000 0.000000 0.000000 10.000000 
L_rear_hand01 0.000000 0.000000 0.000000 0.000000 0.000000 0.000000 10.000000 
L_rear_hand02 0.000000 0.000000 0.000000 0.000000 0.000000 0.000000 10.000000 
L_rear_hand03 0.000000 0.000000 0.000000 0.000000 0.000000 0.000000 10.000000 
#Beginning of Data. Separated by tabs
#Fr	Tx	Ty	Tz	Rx	Ry	Rz	SF
[MASTER]
31 -82.730858 2778.689453 -175.680481 0.001660 0.001660 0.001660 2785.466309
32 -74.457886 2897.160156 -232.286133 0.001660 0.001660 0.001660 2907.410645
[root]
31 2.696667 444.668884 1300.215576 -91.560066 -34.469105 -89.989227 1374.153687
32 2.159110 432.480316 1320.725830 -91.573212 -32.598984 -89.953804 1389.734009
[chest]
31 -84.512650 -34.090519 0.000000 0.487071 -16.991497 160.804581 91.129311
32 -84.512650 -34.090519 0.000000 4.221130 -14.132439 165.763092 91.129311
[L_mid_tent01]
31 27.299175 22.178993 -249.918701 -4.362924 35.115047 60.732491 252.381683
32 27.299177 22.178989 -249.918701 -7.120294 33.480442 55.144768 252.381683
[R_mid_tent01]
31 23.228794 24.509907 226.238495 173.895630 -30.891901 58.389252 228.744751
32 23.228794 24.509907 226.238495 176.434143 -30.156536 54.586739 228.744751
[spine01]
31 -0.361383 -0.195265 0.000000 -0.000001 -0.000007 22.052340 0.410763
32 -0.361383 -0.195265 0.000000 -0.000001 -0.000007 22.052340 0.410763
[Bip01_Neck]
31 165.484543 71.581718 0.000119 176.643677 -1.657967 43.431911 180.302734
32 165.484543 71.581718 0.000119 176.643677 -1.657967 43.431911 180.302734
[L_humerus]
31 -13.983130 -135.272980 -120.471481 148.061554 76.442764 -120.651329 181.680161
32 -13.983130 -135.272980 -120.471481 133.572479 81.226891 -135.431702 181.680161
[R_humerus]
31 -13.983309 -135.273102 125.287651 -172.382126 -73.691734 -92.615509 184.909012
32 -13.983309 -135.273102 125.287651 -173.646057 -79.349426 -91.369438 184.909012
[weapon_bone]
31 235.964890 -300.705902 0.000000 0.000000 -89.951546 -128.212341 382.234833
32 235.964890 -300.705902 0.000000 0.000000 -89.951546 -128.212341 382.234833
[Bip01_Head]
31 217.316391 193.779755 33.482956 32.574516 13.922997 -44.059910 293.083801
32 217.316284 193.779678 33.482967 32.574516 13.922997 -44.059910 293.083679
[eye_left_bone]
31 -24.626970 125.451866 -64.772606 0.000000 -90.000000 -99.840431 143.318359
32 -24.626970 125.451866 -64.772606 0.000000 -90.000000 -99.840431 143.318359
[eye_right_bone]
31 -24.626970 125.451866 64.327362 0.000000 -89.965736 80.156380 143.117676
32 -24.626970 125.451866 64.327362 0.000000 -89.965736 80.156380 143.117676
[L_forearm]
31 322.776093 0.000000 -0.000119 0.000153 -0.002342 -97.463020 322.776093
32 322.776093 0.000000 -0.000119 0.000119 -0.002344 -95.807480 322.776093
[L_front_hand]
31 241.149185 -0.042021 -3.300071 0.836795 -1.835726 -27.423454 241.171753
32 241.149185 -0.042021 -3.300071 0.836590 -1.835725 -27.423449 241.171753
[L_weapon_bone]
31 156.183838 0.000000 0.000000 0.000014 0.000007 0.000001 156.183838
32 156.183838 0.000000 0.000000 0.000014 0.000007 0.000001 156.183838
[L_front_hand01_01]
31 86.095154 20.947098 -0.655860 -0.366594 -0.477154 75.385574 88.609184
32 86.095154 20.947098 -0.655860 -0.366594 -0.477154 75.385574 88.609184
[L_front_hand02_01]
31 86.935165 -11.437475 24.513514 154.399796 -59.883835 -61.369587 91.046425
32 86.935165 -11.437475 24.513514 154.399796 -59.883835 -61.369587 91.046425
[L_front_hand03_01]
31 86.637497 -14.123976 -20.424902 -153.913879 58.118130 -62.702892 90.126129
32 86.637497 -14.123976 -20.424902 -153.913864 58.118130 -62.702873 90.126129
[L_front_hand01_02]
31 71.020905 -0.000179 0.000030 0.001476 0.001825 -12.083236 71.020905
32 71.020905 -0.000179 0.000030 0.001441 0.001853 -14.258877 71.020905
[L_front_hand02_02]
31 71.020927 -0.000119 0.000060 0.001476 0.001825 -12.083236 71.020927
32 71.020927 -0.000119 0.000060 0.001441 0.001853 -14.258877 71.020927
[L_front_hand03_02]
31 71.020905 -0.000060 0.000060 0.001476 0.001825 -12.083236 71.020905
32 71.020905 -0.000060 0.000060 0.001441 0.001853 -14.258877 71.020905
[R_forearm]
31 322.776428 -0.000060 0.000030 0.212594 0.019458 -96.086891 322.776428
32 322.776428 -0.000060 0.000030 0.209504 0.012586 -94.339081 322.776428
[R_front_hand]
31 238.847015 -0.006795 2.210259 42.935936 -10.646151 -26.312962 238.857239
32 238.847015 -0.006795 2.210259 42.936226 -10.646151 -26.312963 238.857239
[R_weapon_bone]
31 155.664093 0.002503 -0.000030 0.003487 0.001180 -90.988930 155.664078
32 155.664093 0.002503 -0.000030 0.003487 0.001180 -90.988930 155.664078
[R_front_hand01_01]
31 87.624611 14.231146 22.918642 -154.633499 -59.950619 61.746044 91.683487
32 87.624611 14.231146 22.918642 -154.633514 -59.950626 61.746063 91.683487
[R_front_hand02_01]
31 89.356956 14.367283 -19.491137 154.602676 58.302864 63.744400 92.579636
32 89.356956 14.367283 -19.491137 154.602676 58.302864 63.744400 92.579636
[R_front_hand03_01]
31 87.286232 -22.307278 -0.143439 0.162155 -0.423168 -75.767921 90.091743
32 87.286232 -22.307278 -0.143439 0.162155 -0.423168 -75.767921 90.091743
[R_front_hand01_02]
31 71.020905 0.000060 0.000119 0.001813 0.001491 11.142048 71.020905
32 71.020905 0.000060 0.000119 0.001828 0.001472 12.300447 71.020905
[R_front_hand02_02]
31 71.020844 -0.000030 -0.000119 0.001813 0.001491 11.142048 71.020836
32 71.020844 -0.000030 -0.000119 0.001828 0.001472 12.300447 71.020836
[R_front_hand03_02]
31 71.020905 0.000000 0.000030 0.001813 0.001491 11.142048 71.020905
32 71.020905 0.000000 0.000030 0.001828 0.001472 12.300447 71.020905
[null_rope01_connect]
31 328.732483 0.000000 -0.000238 -124.609207 -53.206451 -172.837952 328.732483
32 328.732483 0.000000 -0.000238 -126.178909 -54.433659 -168.321045 328.732483
[Rope1_Seg01]
31 0.000000 0.000000 0.000000 -9.884379 66.201996 174.556702 0.000000
32 0.000000 0.000000 0.000000 1.510146 66.902199 -172.224869 0.000000
[Rope1_Seg02]
31 139.999863 -0.000179 0.000000 -1.048790 -8.205462 12.028995 139.999863
32 139.999863 -0.000179 0.000000 -0.458256 -6.926330 7.670416 139.999863
[Rope1_Seg03]
31 139.999924 0.000060 -0.000060 -1.704708 -12.923678 14.458305 139.999924
32 139.999924 0.000060 -0.000060 -0.989785 -9.913926 9.685116 139.999924
[Rope1_Seg04]
31 139.999924 -0.000060 -0.000119 -3.687970 -15.048480 12.720611 139.999924
32 139.999924 -0.000060 -0.000119 -4.123822 -16.539951 11.785938 139.999924
[Rope1_Seg05]
31 139.999832 0.000119 -0.000060 13.231221 11.305954 10.015466 139.999832
32 139.999832 0.000119 -0.000060 6.192122 7.298818 5.157866 139.999832
[Rope1_Seg06]
31 139.999954 0.000119 -0.000060 13.791583 27.364794 5.076165 139.999954
32 139.999954 0.000119 -0.000060 7.430858 25.950514 -0.933525 139.999954
[Rope1_Seg07]
31 139.999985 0.000060 0.000000 3.259191 12.839306 1.389163 139.999985
32 139.999985 0.000060 0.000000 1.397360 13.034798 -0.550552 139.999985
[Rope1_Seg09]
31 121.602913 0.000119 -0.000089 -89.793175 -1.359789 0.847147 121.602913
32 121.602913 0.000119 -0.000089 -89.793175 -1.359789 0.847147 121.602913
[L_mid_hand01]
31 103.859421 1.038730 8.195221 130.544373 -67.584534 -38.866943 104.187431
32 103.859421 1.038730 8.195221 130.544373 -67.584534 -38.866943 104.187431
[L_mid_hand02]
31 105.572853 -4.139662 -10.864139 -168.923172 43.409309 -73.498886 106.211075
32 105.572853 -4.139662 -10.864139 -168.923172 43.409309 -73.498886 106.211075
[L_mid_hand03]
31 104.641464 17.579376 -3.913581 -6.012627 17.808174 74.893669 106.179977
32 104.641464 17.579376 -3.913581 -6.012627 17.808174 74.893669 106.179977
[null_rope02_connect]
31 328.732849 0.000179 -0.000119 -100.324600 59.680542 12.208996 328.732849
32 328.732849 0.000179 -0.000119 -103.013840 60.757271 8.293921 328.732849
[Rope2_Seg01]
31 0.000067 0.000038 0.000000 29.668272 44.691147 -37.422096 0.000077
32 0.000068 0.000034 0.000000 34.410465 51.311214 -32.418587 0.000076
[Rope2_Seg02]
31 139.999741 -0.000060 -0.000119 1.961069 11.978257 0.331777 139.999756
32 139.999741 -0.000060 -0.000119 1.449755 12.053318 0.761505 139.999756
[Rope2_Seg03]
31 140.000107 0.000030 0.000000 0.801845 23.777645 0.079543 140.000107
32 140.000107 0.000030 0.000000 -0.124216 24.479717 1.589154 140.000107
[Rope2_Seg04]
31 139.999802 0.000000 -0.000060 -7.247626 36.130363 -0.728618 139.999802
32 139.999802 0.000000 -0.000060 -10.101815 35.479908 4.156474 139.999802
[Rope2_Seg05]
31 139.999985 -0.000060 0.000119 -17.436504 25.404871 1.247107 139.999985
32 139.999985 -0.000060 0.000119 -16.374851 22.784132 0.303700 139.999985
[Rope2_Seg06]
31 139.999893 -0.000030 -0.000119 -14.834032 9.073135 3.426960 139.999893
32 139.999893 -0.000030 -0.000119 -13.667768 9.403220 1.591269 139.999893
[Rope2_Seg07]
31 139.999893 0.000060 -0.000060 -10.241610 3.888013 2.843201 139.999893
32 139.999893 0.000060 -0.000060 -11.810984 4.135967 2.459642 139.999893
[Rope2_Seg09]
31 121.338966 0.000089 -0.000060 33.793236 -1.359788 -0.847141 121.338966
32 121.338966 0.000089 -0.000060 33.793236 -1.359788 -0.847141 121.338966
[R_mid_hand01]
31 104.680779 11.144459 -10.335981 -16.212059 45.237240 70.462852 105.778534
32 104.680779 11.144459 -10.335981 -16.212063 45.237247 70.462852 105.778534
[R_mid_hand02]
31 104.070427 2.443552 8.231699 49.067387 -67.749794 39.286469 104.424065
32 104.070427 2.443552 8.231699 49.067368 -67.749771 39.286453 104.424065
[R_mid_hand03]
31 106.028137 -11.221827 -5.996406 -177.101105 15.551026 -76.585571 106.788818
32 106.028137 -11.221827 -5.996406 -177.101105 15.551026 -76.585571 106.788818
[spine02]
31 129.756927 0.001550 0.000119 0.413790 -4.039156 -13.741064 129.756927
32 129.756927 0.001550 0.000119 0.403870 -4.040237 -13.599124 129.756927
[spine03]
31 78.613937 0.081596 -4.899006 1.930327 3.814552 16.987698 78.766479
32 78.613930 0.081600 -4.899006 1.924674 3.817153 16.898891 78.766472
[pelvis]
31 169.435242 0.051022 0.000000 -0.062094 -0.179671 15.125052 169.435257
32 169.435242 0.051022 0.000000 -0.061844 -0.179757 14.965448 169.435257
[null_rope03_connect]
31 -1.257226 -2.466202 137.391083 0.000000 -89.593613 84.059792 137.418976
32 -1.257226 -2.466202 137.391083 0.000000 -89.595551 82.301598 137.418976
[null_rope04_connect]
31 -1.259640 -2.480268 -137.844437 0.000000 -89.593613 84.059792 137.872513
32 -1.259640 -2.480268 -137.844437 0.000000 -89.595551 82.301598 137.872513
[Rope3_Seg01]
31 -0.000033 -0.000238 0.000000 18.156002 -9.770170 -84.201012 0.000241
32 -0.000034 -0.000245 0.000000 17.524923 -4.606773 -86.310562 0.000247
[Rope3_Seg02]
31 139.999924 -0.000119 0.000060 0.438723 -4.773555 13.005193 139.999924
32 139.999924 -0.000119 0.000060 0.618107 -4.236084 11.947789 139.999924
[Rope3_Seg03]
31 139.999924 -0.000119 0.000119 -0.822968 -1.971148 12.869153 139.999924
32 139.999924 -0.000119 0.000119 -0.638715 -2.116647 12.787317 139.999924
[Rope3_Seg04]
31 139.999924 0.000119 0.000000 -2.888001 -4.221084 12.309675 139.999924
32 139.999924 0.000119 0.000000 -2.435827 -3.403144 12.311376 139.999924
[Rope3_Seg05]
31 139.999924 -0.000238 0.000060 -7.285579 -15.586759 11.478324 139.999924
32 139.999924 -0.000238 0.000060 -6.394185 -14.907800 10.486792 139.999924
[Rope3_Seg06]
31 139.999893 -0.000119 -0.000060 -3.291721 -10.015030 5.417481 139.999893
32 139.999893 -0.000119 -0.000060 -3.157068 -10.579029 5.378685 139.999893
[Rope3_Seg07]
31 139.999771 0.000060 -0.000119 -1.228355 -5.207776 2.978978 139.999771
32 139.999771 0.000060 -0.000119 -1.206652 -5.696884 3.176941 139.999771
[Rope3_Seg08]
31 139.999985 -0.000060 0.000000 -0.403865 -3.049608 1.664924 139.999985
32 139.999985 -0.000060 0.000000 -0.387638 -3.371092 1.794364 139.999985
[Rope3_Seg09]
31 90.185997 -0.000179 -0.000060 89.793228 -1.359877 -0.847183 90.185997
32 90.185997 -0.000179 -0.000060 89.793228 -1.359877 -0.847183 90.185997
[R_rear_hand01]
31 103.366196 -6.073594 -10.757982 -177.714203 24.565960 -73.910950 104.101845
32 103.366196 -6.073594 -10.757982 -177.714203 24.565960 -73.910950 104.101845
[R_rear_hand02]
31 100.509819 12.039542 -7.992327 -12.874829 36.868488 72.167213 101.543350
32 100.509819 12.039542 -7.992327 -12.874829 36.868488 72.167213 101.543350
[R_rear_hand03]
31 101.539970 5.215704 5.435467 71.484581 -71.816628 21.513813 101.819031
32 101.539970 5.215704 5.435467 71.484581 -71.816628 21.513813 101.819031
[Rope4_Seg01]
31 0.000010 0.000038 -0.000114 -22.392822 -28.230118 165.941971 0.000121
32 0.000010 0.000038 -0.000114 -28.382217 -28.178898 170.308197 0.000121
[Rope4_Seg02]
31 139.999985 0.000060 0.000119 -13.734506 5.771715 14.316867 139.999985
32 139.999985 0.000060 0.000119 -10.780157 5.049900 11.850488 139.999985
[Rope4_Seg03]
31 139.999924 0.000000 -0.000238 -28.766861 -6.039639 18.892700 139.999924
32 139.999924 0.000000 -0.000238 -24.626463 -6.823409 16.688532 139.999924
[Rope4_Seg04]
31 139.999985 0.000000 0.000119 -12.983198 -8.088202 8.173647 139.999985
32 139.999985 0.000000 0.000119 -9.423020 -3.449167 6.808190 139.999985
[Rope4_Seg05]
31 139.999802 -0.000060 -0.000119 12.920145 33.280781 16.441877 139.999802
32 139.999802 -0.000060 -0.000119 137.359177 47.773090 14.283732 139.999802
[Rope4_Seg06]
31 139.999924 0.000000 0.000060 171.537949 48.809620 13.564340 139.999924
32 139.999924 0.000000 0.000060 33.058105 -19.426382 -37.832996 139.999924
[Rope4_Seg07]
31 139.999802 0.000000 0.000000 1.511246 -10.037379 -5.863220 139.999802
32 139.999802 0.000000 0.000000 1.732507 -7.579482 -5.672180 139.999802
[Rope4_Seg08]
31 139.999924 0.000000 0.000119 -1.120955 -4.311844 -2.396386 139.999924
32 139.999924 0.000000 0.000119 -1.000472 -3.408590 -2.413102 139.999924
[Rope4_Seg09]
31 90.185791 0.000060 0.000060 -135.617828 2.228885 0.850567 90.185791
32 90.185791 0.000060 0.000060 -135.617828 2.228885 0.850567 90.185791
[L_rear_hand01]
31 101.696655 -8.392275 -7.654577 -12.874829 -36.868488 107.832764 102.329041
32 101.696655 -8.392275 -7.654577 -12.874829 -36.868488 107.832764 102.329041
[L_rear_hand02]
31 102.726799 -1.568258 5.773216 71.484581 71.816628 158.486160 102.900848
32 102.726799 -1.568258 5.773216 71.484581 71.816628 158.486160 102.900848
[L_rear_hand03]
31 104.552910 9.721220 -10.420293 -177.714203 -24.565960 -106.089035 105.519653
32 104.552910 9.721220 -10.420293 -177.714203 -24.565960 -106.089035 105.519653
